/vscmnt/brussel_pixiu_data/_data_brussel/112/vsc11236/PredSimResults/SUBJ07opt3D/trackIG/worker_07.mot
version=1
nRows=11
nColumns=50
inDegrees=yes
endheader
                time	         pelvis_tilt	         pelvis_list	     pelvis_rotation	           pelvis_tx	           pelvis_ty	           pelvis_tz	       hip_flexion_r	     hip_adduction_r	      hip_rotation_r	        knee_angle_r	       ankle_angle_r	         mtp_angle_r	       hip_flexion_l	     hip_adduction_l	      hip_rotation_l	        knee_angle_l	       ankle_angle_l	         mtp_angle_l	    lumbar_extension	      lumbar_bending	     lumbar_rotation	 ercspn_r/activation	 intobl_r/activation	 extobl_r/activation	    abd_r/activation	    add_r/activation	hamstrings_r/activation	bifemsh_r/activation	glut_max_r/activation	iliopsoas_r/activation	rect_fem_r/activation	  vasti_r/activation	gastroc_r/activation	 soleus_r/activation	tib_ant_r/activation	 ercspn_l/activation	 intobl_l/activation	 extobl_l/activation	    abd_l/activation	    add_l/activation	hamstrings_l/activation	bifemsh_l/activation	glut_max_l/activation	iliopsoas_l/activation	rect_fem_l/activation	  vasti_l/activation	gastroc_l/activation	 soleus_l/activation	tib_ant_l/activation	
          1.11066422	         -3.87976652	         -0.10472986	          8.01458352	          1.33279707	          0.84989130	         -0.01314957	         29.38623964	         -2.36196673	         -4.28615696	         -5.89311945	          2.02069918	          0.27062929	        -14.61560957	          0.04904714	          3.69373661	         -8.15238260	          8.77159093	         26.82311786	        -10.55179284	         -1.81209565	         -1.20633787	          0.12404187	          0.14424566	          0.01000000	          0.01185110	          0.12706994	          0.06418368	          0.10340357	          0.07273553	          0.03386144	          0.01185109	          0.00999999	          0.00999999	          0.00999999	          0.39994319	          0.11024448	          0.00999999	          0.00999999	          0.03595613	          0.00999999	          0.01000030	          0.14305274	          0.01772751	          0.14661106	          0.01185112	          0.01000000	          0.14391245	          0.30228850	          0.01972583	
          1.12177087	         -3.89024800	         -0.09968492	          8.06047436	          1.34822258	          0.84839276	         -0.01281789	         29.19697359	         -2.13972094	         -3.98016706	         -7.33886518	          1.65891222	          0.25535147	        -15.15913725	         -0.07230341	          3.37855241	         -8.98949649	          7.86572111	         28.36309349	        -10.45707117	         -1.39893012	         -1.39989531	          0.10466690	          0.12183640	          0.00999999	          0.00999999	          0.10922117	          0.06016962	          0.12507124	          0.11311354	          0.02857238	          0.01000000	          0.00999999	          0.01664456	          0.01185110	          0.42142838	          0.12099605	          0.00999999	          0.01000000	          0.03033989	          0.01522858	          0.01495691	          0.12070833	          0.01495854	          0.12371086	          0.01000002	          0.01000000	          0.12143376	          0.28707226	          0.01664471	
          1.13287751	         -3.89385643	         -0.09082966	          8.06130257	          1.36382908	          0.84711254	         -0.01241190	         28.93589374	         -1.97135886	         -3.65972437	         -8.73578019	          1.22518337	          0.25019069	        -15.59757982	         -0.17963250	          3.02897480	        -10.03540757	          6.83946545	         29.85854327	        -10.35642066	         -0.98555001	         -1.58875347	          0.12736268	          0.10280592	          0.00999999	          0.08101534	          0.12155500	          0.05779787	          0.11649633	          0.11420018	          0.02410946	          0.00999999	          0.00999999	          0.01404473	          0.00999999	          0.49448715	          0.13224541	          0.00999999	          0.00999999	          0.02560089	          0.01284993	          0.01262085	          0.10185406	          0.01262206	          0.10438760	          0.01000010	          0.01000002	          0.10246617	          0.26397044	          0.01404486	
          1.14398415	         -3.89240423	         -0.05871151	          8.01847199	          1.37943719	          0.84620144	         -0.01190788	         28.67548407	         -1.82322756	         -3.39307957	        -10.11818070	          0.73850931	          0.23105425	        -15.85538796	         -0.25124834	          2.65731909	        -11.39507989	          5.66960873	         31.27653979	        -10.27101614	         -0.59726104	         -1.77019356	          0.14022523	          0.08674795	          0.00999999	          0.12894493	          0.14879838	          0.05264251	          0.09829996	          0.13840621	          0.02034364	          0.00999999	          0.00999999	          0.01185099	          0.00999999	          0.52636515	          0.16991807	          0.00999999	          0.00999999	          0.02160211	          0.01780404	          0.01064990	          0.08594477	          0.01065054	          0.08808258	          0.01000018	          0.01389755	          0.08646127	          0.24123666	          0.01185110	
          1.15509079	         -3.88567899	         -0.00689397	          7.93643657	          1.39493195	          0.84578574	         -0.01131523	         28.46735202	         -1.68754745	         -3.16682692	        -11.63205567	          0.48897410	          0.21050428	        -15.87537785	         -0.28997207	          2.26328117	        -13.14700685	          4.35651444	         32.52817515	        -10.20655210	         -0.23206477	         -1.94286121	          0.15004882	          0.07319818	          0.00999999	          0.17398050	          0.17985153	          0.04642123	          0.08294580	          0.16504001	          0.01716602	          0.01000000	          0.01000000	          0.00999999	          0.00999999	          0.52035384	          0.20848343	          0.00999999	          0.00999999	          0.01822793	          0.03477786	          0.01066944	          0.07252046	          0.01000000	          0.07432435	          0.01000005	          0.01185109	          0.07295628	          0.20508339	          0.00999999	
          1.16619743	         -3.87405338	          0.06154982	          7.81646723	          1.41019537	          0.84598407	         -0.01064674	         28.32976428	         -1.56530179	         -2.98193002	        -13.30445363	          0.55114598	          0.19064513	        -15.57649418	         -0.29683190	          1.83673572	        -15.41979223	          2.94745445	         33.43000487	        -10.16812225	          0.11122818	         -2.10427400	          0.16059181	          0.06176485	          0.00999999	          0.19994787	          0.21205696	          0.04472035	          0.06998992	          0.18050509	          0.01448474	          0.01000000	          0.02449385	          0.01000000	          0.00999999	          0.49113155	          0.23789509	          0.00999999	          0.00999999	          0.01538078	          0.06701740	          0.01162221	          0.06119298	          0.00999999	          0.06271512	          0.01000001	          0.01000000	          0.06156073	          0.17304998	          0.00999999	
          1.17730408	         -3.85793615	          0.14600491	          7.65966529	          1.42519212	          0.84683198	         -0.00992080	         28.20432167	         -1.45345142	         -2.83022964	        -15.01620756	          0.90175468	          0.17711833	        -14.89555315	         -0.27491323	          1.36453915	        -18.31472092	          1.47709381	         33.77448679	        -10.15042463	          0.43181284	         -2.25167894	          0.16591079	          0.05211737	          0.00999999	          0.20987396	          0.23286872	          0.04321051	          0.05905771	          0.18835085	          0.01222227	          0.01000000	          0.03608733	          0.00999999	          0.00999999	          0.43817876	          0.25225664	          0.00999999	          0.00999999	          0.01297835	          0.09540974	          0.01282128	          0.05163483	          0.00999999	          0.05291921	          0.01000000	          0.00999999	          0.05194513	          0.14602010	          0.00999999	
          1.18841072	         -3.83781809	          0.24387938	          7.46713705	          1.43994683	          0.84826974	         -0.00915244	         28.01222288	         -1.34482466	         -2.69138256	        -16.61655544	          1.49270051	          0.18901707	        -13.80809078	         -0.23623819	          0.85506454	        -21.84943867	         -0.12446546	         33.48794762	        -10.14237433	          0.73114642	         -2.38181532	          0.15510701	          0.04397679	          0.00999999	          0.20695591	          0.23835710	          0.04396013	          0.04983308	          0.18635833	          0.01031319	          0.01000000	          0.05471703	          0.01000000	          0.00999999	          0.37175690	          0.25694337	          0.00999999	          0.00999999	          0.01095117	          0.11948640	          0.01285819	          0.04356963	          0.00999999	          0.04465339	          0.01000000	          0.00999999	          0.04383146	          0.12321220	          0.00999999	
          1.19951736	         -3.81552345	          0.35060049	          7.23987207	          1.45446884	          0.85020257	         -0.00834603	         27.68270670	         -1.22968554	         -2.54067651	        -17.95441449	          2.21536325	          0.25809053	        -12.31800419	         -0.19549019	          0.33734700	        -25.95125603	         -2.02086485	         32.59988860	        -10.13824540	          1.01132026	         -2.49300974	          0.13087977	          0.03710775	          0.00999999	          0.19846305	          0.22992596	          0.05046239	          0.04204931	          0.16891522	          0.00999999	          0.01000000	          0.08010991	          0.01000000	          0.00999999	          0.31691631	          0.25479276	          0.00999999	          0.00999999	          0.00999999	          0.13345907	          0.01084985	          0.03750783	          0.00999999	          0.03767866	          0.01000000	          0.00999999	          0.03698512	          0.10396683	          0.00999999	
          1.21062400	         -3.79352775	          0.46263864	          6.97759257	          1.46874014	          0.85251901	         -0.00749852	         27.17213205	         -1.10074974	         -2.35280088	        -18.92016483	          2.92565111	          0.38626156	        -10.45827341	         -0.16044312	         -0.14983896	        -30.48315608	         -4.30752759	         31.04037788	        -10.13969372	          1.27222170	         -2.58439597	          0.11043674	          0.03131163	          0.00999999	          0.19387878	          0.20915226	          0.06134065	          0.03548134	          0.14253117	          0.00999999	          0.00999999	          0.10450079	          0.00999999	          0.00999999	          0.27777739	          0.24283016	          0.00999999	          0.00999999	          0.00999999	          0.13949025	          0.01185175	          0.03164924	          0.00999999	          0.03179337	          0.00999999	          0.00999999	          0.03120815	          0.08772753	          0.02834768	
          1.22173065	         -3.77374887	          0.57445498	          6.68244615	          1.48272376	          0.85507426	         -0.00662713	         26.48051182	         -0.95663734	         -2.11771516	        -19.50038302	          3.58306058	          0.56767539	         -8.29950103	         -0.12514309	         -0.55993083	        -35.29246398	         -6.67831727	         28.38487682	        -10.15189031	          1.51866044	         -2.65442800	          0.09318686	          0.02642085	          0.00999999	          0.20065341	          0.17648332	          0.06918579	          0.02993927	          0.12026824	          0.00999999	          0.00999999	          0.12732424	          0.00999999	          0.00999999	          0.24890422	          0.25359563	          0.03552249	          0.01000000	          0.01202337	          0.11770230	          0.01000117	          0.02670573	          0.01404487	          0.02682734	          0.01000011	          0.00999999	          0.02633354	          0.07402475	          0.17124943	
